<mxfile host="app.diagrams.net" modified="2024-03-30T11:25:44.452Z" agent="Mozilla/5.0 (Windows NT 10.0; Win64; x64) AppleWebKit/537.36 (KHTML, like Gecko) Chrome/123.0.0.0 Safari/537.36" version="24.2.1" etag="IHciz1BTdhX0HhkQX1jK" type="github">
  <diagram name="Page-1" id="vgnqtysXQieB4pXxnnxd">
    <mxGraphModel>
      <root>
        <mxCell id="0" />
        <mxCell id="1" parent="0" />
      </root>
    </mxGraphModel>
  </diagram>
</mxfile>
